<svg width="68" height="80" viewBox="0 0 68 80" fill="none" xmlns="http://www.w3.org/2000/svg">
<g clip-path="url(#clip0_710_686)">
<path d="M11.9959 24.1512H17.5646V29.1719C17.5646 32.2323 16.8152 34.5819 15.3164 36.2206C13.8176 37.8594 11.6405 38.6788 8.78512 38.6788C5.94188 38.6788 3.76275 37.8594 2.24771 36.2206C0.732674 34.5819 -0.0167209 32.2323 -0.000473848 29.1719V9.50684C-0.000473848 6.44646 0.748921 4.09689 2.24771 2.45814C3.7465 0.819378 5.92564 0 8.78512 0C11.6284 0 13.8055 0.819378 15.3164 2.45814C16.8274 4.09689 17.5768 6.44646 17.5646 9.50684V13.194H11.9959V9.13197C11.9959 6.64516 10.9805 5.40175 8.94962 5.40175C6.91874 5.40175 5.9033 6.64516 5.9033 9.13197V29.5529C5.9033 32.0111 6.91874 33.2401 8.94962 33.2401C10.9805 33.2401 11.9959 32.0111 11.9959 29.5529V24.1512ZM27.5809 22.0433V38.2486H21.6893V0.430174H27.5809V16.6416H34.2828V0.430174H40.2841V38.2486H34.2767V22.0433H27.5809ZM63.4118 38.2486H57.4105C57.0032 36.7357 56.8245 35.1694 56.8805 33.6027V27.654C56.8805 25.9292 56.5758 24.7002 55.9666 23.9668C55.3573 23.2335 54.3703 22.8627 53.0055 22.8545H50.9889V38.2486H45.0851V0.430174H53.9804C57.0145 0.430174 59.2281 1.14303 60.6213 2.56875C62.0145 3.99447 62.7111 6.18221 62.7111 9.13197V12.1002C62.7111 15.9881 61.4256 18.5446 58.8545 19.7696C61.454 20.888 62.7538 23.5715 62.7538 27.8199V33.658C62.6834 35.2164 62.9067 36.7741 63.4118 38.2486ZM53.828 5.83193H50.9889V17.4466H53.2919C53.7722 17.4843 54.2551 17.4225 54.7108 17.265C55.1666 17.1075 55.5856 16.8577 55.9422 16.531C56.5352 15.9164 56.8297 14.8922 56.8256 13.4583V9.72192C56.8256 7.12859 55.8264 5.83193 53.828 5.83193ZM-0.000473848 70.4932V50.8281C-0.000473848 47.8005 0.767199 45.4591 2.30255 43.804C3.83789 42.1488 6.05155 41.3294 8.94353 41.3458C11.8396 41.3458 14.0532 42.1652 15.5845 43.804C17.1158 45.4427 17.8835 47.7841 17.8875 50.8281V70.4932C17.8875 73.5167 17.1199 75.856 15.5845 77.5111C14.0492 79.1663 11.8355 79.9959 8.94353 80C6.05155 80 3.83789 79.1704 2.30255 77.5111C0.767199 75.8519 -0.000473848 73.5126 -0.000473848 70.4932ZM5.89111 50.4471V70.868C5.89111 73.3262 6.90858 74.5983 8.93743 74.5983C10.9663 74.5983 11.9838 73.3692 11.9838 70.868V50.4471C11.9838 47.9889 10.9663 46.7169 8.93743 46.7169C6.90858 46.7169 5.89111 47.9644 5.89111 50.4471ZM28.5984 41.7514L32.9364 68.6004L36.9575 41.7514H45.1521V79.5637H39.6017V52.4443L35.5318 79.5637H29.9388L25.546 52.8499V79.5883H20.4038V41.7514H28.5984ZM54.0961 47.1532V57.6863H62.181V63.088H54.0961V74.1497H64.2708V79.5514H48.2045V41.7514H64.2708V47.1532H54.0961ZM65.3066 43.466V42.0341H64.7582V41.7514H66.1595V42.0341H65.6112V43.4967L65.3066 43.466ZM66.2997 43.466V41.7514H66.6226L67.1466 42.5749L67.6766 41.7514H67.9995V43.4967H67.6949V42.2676L67.1466 43.0911L66.6043 42.2738V43.5028L66.2997 43.466Z" fill="#009BAA"/>
</g>
<defs>
<clipPath id="clip0_710_686">
<rect width="68" height="80" fill="white"/>
</clipPath>
</defs>
</svg>
