<svg width="83" height="83" viewBox="0 0 83 83" fill="none" xmlns="http://www.w3.org/2000/svg">
<g clip-path="url(#clip0_710_681)">
<path d="M83.0003 41.1472V41.8821C82.9721 42.2319 82.9199 42.5857 82.9199 42.9336C82.9199 45.2557 82.6113 47.5456 82.146 49.8135C80.8363 56.3102 77.9698 62.3921 73.7926 67.5369C65.9528 77.2556 54.2374 82.9936 41.4505 82.9996C33.1552 82.9906 25.0533 80.4928 18.1926 75.8292C12.1077 71.6742 7.43969 66.2874 4.18853 59.6689C1.80946 54.8246 0.467658 49.6978 0.0947662 44.3178C-0.0442847 42.2675 -0.0295018 40.2097 0.138991 38.1617C0.308443 35.9648 0.657713 33.7855 1.18329 31.6457C3.27389 23.2408 7.54757 16.1388 14.0335 10.4089C21.0068 4.24573 29.1863 0.845994 38.4644 0.111161C40.2418 -0.0235412 42.0263 -0.0366399 43.8055 0.071956C45.9095 0.187787 48.0017 0.462669 50.0642 0.894246C56.0243 2.13065 61.6319 4.68618 66.4755 8.37326C72.305 12.7863 76.6765 18.3486 79.59 25.0603C81.6565 29.8413 82.8204 34.8323 82.9209 40.0535C82.9259 40.4184 82.9721 40.7823 83.0003 41.1472ZM15.4316 43.1427L16.507 44.0735C16.836 44.3577 17.1643 44.6431 17.492 44.93L18.5082 45.8126L19.5243 46.6962L20.5405 47.5798C20.8691 47.8653 21.1928 48.1568 21.5275 48.4343C21.8622 48.7117 22.1637 49.0485 22.5597 49.2817C22.6462 48.8092 22.6281 35.0927 22.5436 34.785H18.1493V37.3243C18.1493 37.7596 18.1493 38.1948 18.1493 38.6311C18.1493 39.0463 18.1564 39.4614 18.1403 39.9681C15.715 37.8661 13.3802 35.8204 11.0121 33.7687C10.8945 34.2201 10.9116 48.0121 11.0121 48.3146C11.6564 48.394 15.1119 48.3619 15.4346 48.2614L15.4316 43.1427ZM74.0006 48.3237C73.9263 47.999 66.1669 34.0181 65.9016 33.7175C65.5608 34.1196 57.901 47.9306 57.8125 48.3056C57.8356 48.3166 57.8588 48.3367 57.8829 48.3367C59.3242 48.3367 60.7645 48.3368 62.2048 48.3468C62.3706 48.3468 62.447 48.2603 62.5114 48.1307C62.6762 47.803 62.8541 47.4813 63.0069 47.1485C63.0369 47.0597 63.0962 46.9836 63.1751 46.9328C63.254 46.8821 63.3478 46.8596 63.4411 46.8691C65.0854 46.8791 66.7301 46.8791 68.3751 46.8691C68.4612 46.8612 68.5474 46.8822 68.6202 46.9288C68.693 46.9754 68.7482 47.045 68.7771 47.1264C68.9671 47.5285 69.1792 47.9306 69.3742 48.3217L74.0006 48.3237ZM52.4423 38.228H56.6195C56.72 37.834 56.715 35.1268 56.6195 34.7951C56.0466 34.7197 48.2772 34.7479 47.9917 34.8263C47.9133 35.4153 47.9425 48.0201 48.0279 48.3287H56.6175C56.726 47.9266 56.7119 45.0989 56.5923 44.7691C55.9119 44.7691 55.2194 44.7691 54.5259 44.7691C53.8323 44.7691 53.1489 44.7842 52.4734 44.7591C52.381 44.2715 52.3971 43.021 52.4996 42.6943H56.6205C56.721 42.2198 56.7049 40.4134 56.5893 40.0746H52.4423V38.228ZM42.5159 34.781C41.5108 36.7543 40.5419 38.7497 39.5006 40.7864C39.3901 40.5783 39.3177 40.4506 39.2524 40.3189C38.386 38.5788 37.5166 36.8398 36.6612 35.0916C36.5436 34.8504 36.413 34.7539 36.1366 34.7569C34.7908 34.772 33.4439 34.7629 32.0971 34.7649C31.9966 34.7649 31.8961 34.7861 31.7383 34.8031C34.3264 39.6655 36.8904 44.4796 39.4645 49.3148C39.8142 48.8926 47.1394 35.1067 47.1886 34.781H42.5159ZM26.5942 48.3207H30.9814C31.0719 47.8773 31.0568 35.0977 30.9704 34.7951C30.2417 34.7127 26.8686 34.7458 26.5942 34.8393V48.3207Z" fill="#394C99"/>
<path d="M64.28 44.5323C64.8107 43.4416 65.3374 42.362 65.9023 41.2019C66.45 42.3469 66.9657 43.4245 67.4843 44.5061C67.1637 44.5996 64.7625 44.6187 64.28 44.5323Z" fill="#394C99"/>
</g>
<defs>
<clipPath id="clip0_710_681">
<rect width="83" height="83" fill="white"/>
</clipPath>
</defs>
</svg>
