<svg width="81" height="82" viewBox="0 0 81 82" fill="none" xmlns="http://www.w3.org/2000/svg">
<path d="M80.2262 40.9221C80.2225 49.7838 77.3967 58.4047 72.174 65.4875C66.9514 72.5704 59.6143 77.7322 51.2667 80.1962C42.9191 82.6603 34.0126 82.2933 25.8872 79.1505C17.7618 76.0077 10.857 70.2592 6.21176 62.7697C1.56649 55.2803 -0.568007 46.455 0.129426 37.6219C0.826859 28.7887 4.3185 20.4254 10.079 13.7903C15.8395 7.15519 23.5572 2.60717 32.0711 0.830526C40.5849 -0.946113 49.4343 0.144728 57.2877 3.93892C56.3508 3.68782 55.3827 3.5795 54.4148 3.61749C46.0661 3.61749 36.8529 7.29101 30.0983 12.9666C23.2087 18.7799 17.8141 28.579 17.8501 38.7822C17.9131 54.1926 29.3689 63.7805 40.4103 63.7438C43.2382 63.7631 46.0419 63.2126 48.6606 62.1239C51.2792 61.0352 53.6611 59.4296 55.6695 57.3995C57.6779 55.3694 59.2733 52.9547 60.3639 50.294C61.4546 47.6334 62.019 44.7793 62.0249 41.8955C62.0249 31.4995 56.4411 23.978 44.2289 20.9381C44.1913 20.7198 44.1733 20.4985 44.1748 20.2769C44.2378 16.4459 45.5666 12.7487 47.9464 9.78367C50.3261 6.81863 53.6175 4.75927 57.2877 3.93892C64.151 7.25843 69.9498 12.4957 74.0103 19.0423C78.0707 25.5889 80.2262 33.176 80.2262 40.9221Z" fill="#EF411B"/>
</svg>
